<?xml version="1.0" encoding="iso-8859-1"?>
<!-- Generator: Adobe Illustrator 22.0.0, SVG Export Plug-In . SVG Version: 6.00 Build 0)  -->
<svg xmlns="http://www.w3.org/2000/svg" xmlns:xlink="http://www.w3.org/1999/xlink" version="1.1" id="Capa_1" x="0px" y="0px" viewBox="0 0 512 512" style="enable-background:new 0 0 512 512;" xml:space="preserve" width="512" height="512">
<g>
	<path d="M360,45c0-24.813-20.187-45-45-45H180l-60,256l60,256h135c24.813,0,45-20.187,45-45v-30l-30-181l30-181V45z"/>
	<path style="fill:#012631;" d="M45,0C20.187,0,0,20.187,0,45v30l30,181L0,437v30c0,24.813,20.187,45,45,45h135V0H45z"/>
	<polygon style="fill:#AAEFFD;" points="180,75 120,256 180,437 360,437 360,75  "/>
	<rect y="75" style="fill:#EFF7F9;" width="180" height="362"/>
	<path style="fill:#92D652;" d="M135,166v15.001L165,211l-30,29.999V346c0,24.813,20.187,45,45,45l150-135L180,121   C155.187,121,135,141.187,135,166z"/>
	<path style="fill:#76BF32;" d="M512,166c0-24.813-20.187-45-45-45H180v270h287c24.813,0,45-20.187,45-45V240.999L482,211l30-29.999   V166z"/>
	<rect x="378" y="271" style="fill:#448819;" width="104" height="30"/>
	<polygon style="fill:#012631;" points="135,181 135,241 180,241 210,211 180,181  "/>
	<rect x="180" y="181" width="332" height="60"/>
</g>















</svg>
